<svg xmlns="http://www.w3.org/2000/svg" xmlns:xlink="http://www.w3.org/1999/xlink" width="135" height="59" viewBox="0 0 135 59">
    <defs>
        <path id="a" d="M0 66.997l134.785-2.725V.552H0z"/>
    </defs>
    <g fill="none" fill-rule="evenodd">
        <path fill="#1E1E1E" d="M19.4 25.577c0 1.101.198 2.132.594 3.096a7.666 7.666 0 0 0 1.64 2.506 7.925 7.925 0 0 0 2.433 1.68 7.18 7.18 0 0 0 2.968.62 7.193 7.193 0 0 0 2.97-.62 7.953 7.953 0 0 0 2.433-1.68 7.705 7.705 0 0 0 1.64-2.506 8.075 8.075 0 0 0 .594-3.096c0-1.1-.198-2.142-.594-3.124a7.987 7.987 0 0 0-1.64-2.566 7.728 7.728 0 0 0-2.433-1.71 7.213 7.213 0 0 0-2.97-.619 7.199 7.199 0 0 0-2.968.62 7.701 7.701 0 0 0-2.433 1.71 7.947 7.947 0 0 0-1.64 2.565 8.294 8.294 0 0 0-.594 3.124zm-3.508-.058c0-1.573.293-3.066.877-4.482a11.472 11.472 0 0 1 2.404-3.684 11.543 11.543 0 0 1 3.564-2.477 10.514 10.514 0 0 1 4.355-.915c1.584 0 3.063.306 4.44.915a11.428 11.428 0 0 1 3.591 2.477c1.02 1.04 1.82 2.269 2.404 3.684.586 1.416.878 2.909.878 4.482 0 1.611-.292 3.116-.878 4.51a11.543 11.543 0 0 1-2.404 3.656 11.425 11.425 0 0 1-3.59 2.476c-1.378.609-2.857.914-4.441.914-1.546 0-2.998-.305-4.355-.914a11.54 11.54 0 0 1-3.564-2.476 11.563 11.563 0 0 1-2.404-3.655c-.584-1.395-.877-2.9-.877-4.511z"/>
        <path fill="#FF0F1B" d="M49.264 25.283c0-.904.301-1.651.905-2.242.603-.589 1.281-.884 2.036-.884.717 0 1.377.295 1.98.884.603.59.904 1.338.904 2.242 0 .904-.3 1.642-.904 2.21-.604.571-1.263.855-1.98.855-.755 0-1.433-.284-2.036-.854-.604-.57-.905-1.307-.905-2.21"/>
        <path fill="#1E1E1E" d="M81.56 31.769c.68.905 1.395 1.828 2.15 2.77a11.923 11.923 0 0 1-3.252 1.857 10.645 10.645 0 0 1-3.818.68 10.52 10.52 0 0 1-4.356-.915 11.525 11.525 0 0 1-3.564-2.476 11.563 11.563 0 0 1-2.404-3.655c-.584-1.396-.875-2.9-.875-4.512 0-1.572.291-3.065.875-4.481a11.492 11.492 0 0 1 2.404-3.685 11.546 11.546 0 0 1 3.564-2.476 10.52 10.52 0 0 1 4.356-.914c1.394 0 2.687.226 3.874.677a11.992 11.992 0 0 1 3.252 1.858c-.376.471-.755.934-1.131 1.386-.378.453-.735.913-1.074 1.385a7.623 7.623 0 0 0-2.263-1.267 7.874 7.874 0 0 0-2.658-.443 7.539 7.539 0 0 0-3.055.62 7.485 7.485 0 0 0-2.431 1.68c-.679.707-1.216 1.554-1.613 2.535a8.303 8.303 0 0 0-.594 3.125c0 1.14.198 2.192.594 3.156a7.97 7.97 0 0 0 1.613 2.505 7.5 7.5 0 0 0 2.43 1.68c.944.414 1.961.62 3.056.62.98 0 1.875-.147 2.687-.443a7.72 7.72 0 0 0 2.234-1.267M98.415 25.518c0 1.141.198 2.192.595 3.155a7.919 7.919 0 0 0 1.611 2.506 7.536 7.536 0 0 0 5.486 2.3 7.543 7.543 0 0 0 3.055-.619 7.528 7.528 0 0 0 2.433-1.681 7.94 7.94 0 0 0 1.611-2.506c.396-.963.594-2.014.594-3.155 0-1.1-.198-2.142-.594-3.124-.396-.983-.933-1.829-1.611-2.536a7.509 7.509 0 0 0-2.433-1.681 7.543 7.543 0 0 0-3.055-.62 7.539 7.539 0 0 0-5.486 2.3 7.853 7.853 0 0 0-1.611 2.537 8.272 8.272 0 0 0-.595 3.124m-3.563.059c0-1.572.292-3.055.876-4.451a12.207 12.207 0 0 1 2.376-3.685 11.26 11.26 0 0 1 3.564-2.536c1.376-.628 2.855-.943 4.44-.943a9.15 9.15 0 0 1 2.97.472c.923.315 1.742.706 2.46 1.178.715.472 1.309.964 1.78 1.474.472.513.765.964.877 1.357 0-.629.03-1.278.086-1.946.057-.668.103-1.335.14-2.004h2.885v22.11h-3.11V32.83c-.113.394-.386.836-.821 1.326-.433.492-.998.954-1.696 1.387-.698.432-1.518.795-2.46 1.09-.943.295-1.98.443-3.112.443-1.584 0-3.063-.305-4.44-.916a11.06 11.06 0 0 1-3.563-2.476c-1-1.04-1.79-2.259-2.376-3.655a11.404 11.404 0 0 1-.876-4.452"/>
        <mask id="b" fill="#fff">
            <use xlink:href="#a"/>
        </mask>
        <path fill="#1E1E1E" d="M131.221 36.603h3.564V.553h-3.564zM27.446 58.045h-1.451a872.267 872.267 0 0 1-2.097-2.775c-.694-.921-1.393-1.846-2.097-2.773-.155.153-.307.303-.453.45-.148.149-.298.298-.455.451v4.647h-1.217v-10.7h1.217v4.189c-.01.08-.018.163-.022.244-.005.082-.014.163-.022.245.049-.06.096-.12.14-.177l.138-.175c.733-.722 1.46-1.444 2.177-2.162.72-.719 1.444-1.44 2.177-2.163h1.496a315.93 315.93 0 0 1-2.184 2.17 482.14 482.14 0 0 0-2.185 2.171c.812 1.07 1.618 2.13 2.42 3.178.8 1.05 1.607 2.11 2.418 3.18M35.075 58.046h1.217v-10.7h-1.217zM51.873 47.346v1.208h-3.43v9.491h-1.217v-9.491h-3.46v-1.208zM65.535 56.394l.66 1.01c-.391.233-.81.419-1.254.557a4.78 4.78 0 0 1-1.415.206 4.916 4.916 0 0 1-2.037-.427 5.275 5.275 0 0 1-1.665-1.17 5.523 5.523 0 0 1-1.121-1.735 5.508 5.508 0 0 1-.41-2.124c0-.754.136-1.465.41-2.133a5.502 5.502 0 0 1 1.121-1.742 5.377 5.377 0 0 1 1.665-1.177 4.846 4.846 0 0 1 2.037-.436c.499 0 .97.068 1.415.2.445.132.868.32 1.268.565a9.844 9.844 0 0 1-.337.512c-.116.168-.23.339-.337.512a4.266 4.266 0 0 0-.953-.427 3.57 3.57 0 0 0-1.056-.154c-.556 0-1.077.112-1.56.337-.486.224-.91.533-1.277.924a4.425 4.425 0 0 0-1.18 3.019c0 .58.105 1.13.315 1.651.21.52.5.97.865 1.352.367.382.791.685 1.276.91a3.669 3.669 0 0 0 1.56.336c.725 0 1.394-.188 2.01-.566M74.05 58.045v-10.7h1.218v4.708h5.542v-4.707h1.218v10.699H80.81V53.26h-5.542v4.784zM90.535 58.045v-10.7h6.319v1.209h-5.102v3.5h4.53v1.207h-4.53v3.576h5.307v1.208zM114.278 47.346v11.187l-3.754-4.156a6253.042 6253.042 0 0 0-3.752-4.157 7.81 7.81 0 0 0-.14-.199 7.815 7.815 0 0 1-.14-.2c.01.083.018.164.023.246.005.081.012.162.023.244v7.734h-1.218V46.856c1.26 1.428 2.512 2.841 3.754 4.242l3.753 4.24c.049.073.095.14.138.2.044.061.092.128.141.2a3.435 3.435 0 0 1-.022-.245 5.671 5.671 0 0 0-.023-.245v-7.902h1.217zM0 36.603h3.564V.551H0z" mask="url(#b)"/>
    </g>
</svg>
