<?xml version="1.0" encoding="utf-8"?>
<!-- Generator: Adobe Illustrator 22.0.1, SVG Export Plug-In . SVG Version: 6.00 Build 0)  -->
<svg version="1.1" id="Layer_1" xmlns="http://www.w3.org/2000/svg" xmlns:xlink="http://www.w3.org/1999/xlink" x="0px" y="0px"
	 viewBox="0 0 30 30" style="enable-background:new 0 0 30 30;" xml:space="preserve">
<style type="text/css">
	.st0{fill:#313131;}
</style>
<g>
	<path class="st0" d="M21.2,10c-0.2,0-0.4,0.1-0.5,0.3c-2.8,2.9-5.6,5.8-8.4,8.7l-3.9-3.3c-0.3-0.3-0.8-0.3-1.2,0c0,0,0,0-0.1,0.1
		C6.9,16.1,7,16.7,7.3,17c0,0,0,0,0,0l4.5,3.8c0.3,0.3,0.8,0.3,1.1-0.1c3-3.1,6-6.2,8.9-9.3C22.4,10.9,22,9.9,21.2,10z"/>
</g>
</svg>
